<svg xmlns="http://www.w3.org/2000/svg" viewBox="0 0 100 100" width="100%" height="100%">
    <defs>
        <linearGradient id="greenGradient" x1="0%" y1="0%" x2="100%" y2="100%">
            <stop offset="0%" stop-color="#10b981" />
            <stop offset="100%" stop-color="#047857" />
        </linearGradient>
        <linearGradient id="glowGradient" x1="0%" y1="0%" x2="100%" y2="100%">
            <stop offset="0%" stop-color="#34d399" stop-opacity="0.8" />
            <stop offset="100%" stop-color="#10b981" stop-opacity="0.2" />
        </linearGradient>
    </defs>

    <circle cx="50" cy="50" r="35" fill="url(#glowGradient)" opacity="0.15" filter="blur(4px)" />

    <path d="M35 75 C 25 60, 25 40, 40 28 C 45 24, 52 23, 58 26 C 52 32, 44 42, 46 55 C 48 66, 58 72, 65 72 C 55 78, 42 80, 35 75 Z" 
          fill="url(#greenGradient)" />

    <path d="M65 25 C 75 40, 75 60, 60 72 C 55 76, 48 77, 42 74 C 48 68, 56 58, 54 45 C 52 34, 42 28, 35 28 C 45 22, 58 20, 65 25 Z" 
          fill="#f8fafc" />
          
    <circle cx="50" cy="50" r="5" fill="#10b981" />
</svg>
